<?xml version="1.0" standalone="no"?>
<!DOCTYPE svg PUBLIC "-//W3C//DTD SVG 20010904//EN"
 "http://www.w3.org/TR/2001/REC-SVG-20010904/DTD/svg10.dtd">
<svg version="1.0" xmlns="http://www.w3.org/2000/svg"
 width="200.000000pt" height="200.000000pt" viewBox="0 0 200.000000 200.000000"
 preserveAspectRatio="xMidYMid meet">

<g transform="translate(0.000000,200.000000) scale(0.100000,-0.100000)"
fill="#000000" stroke="none">
<path d="M131 1197 c-14 -6 -26 -19 -28 -27 -3 -10 -1 -9 7 3 6 9 17 17 25 17
8 0 17 5 20 10 8 13 5 12 -24 -3z"/>
<path d="M1861 1194 c6 -8 14 -12 17 -9 3 3 12 -1 21 -8 14 -10 14 -10 3 4 -7
9 -22 19 -33 22 -17 5 -18 3 -8 -9z"/>
<path d="M669 1153 c-13 -17 -13 -17 6 -3 11 8 22 16 24 17 2 2 0 3 -6 3 -6 0
-17 -8 -24 -17z"/>
<path d="M1468 1143 c-14 -16 -29 -39 -33 -53 -4 -14 -11 -29 -15 -35 -4 -5
-13 -31 -20 -57 -22 -82 -36 -89 -186 -86 l-129 3 1 43 c1 58 -25 57 -66 -3
l-31 -45 -204 0 -204 1 28 77 c16 42 34 90 40 105 14 36 14 37 -2 31 -7 -2
-19 -20 -26 -39 -7 -19 -17 -35 -22 -35 -5 0 -9 -17 -9 -38 0 -35 -20 -77 -44
-94 -6 -4 -63 -8 -126 -9 -63 -1 -107 -3 -97 -6 19 -5 22 -18 6 -29 -6 -3 -9
-15 -6 -25 3 -11 -1 -26 -10 -34 -13 -13 66 -15 675 -15 379 0 725 -2 768 -5
86 -5 82 0 -8 10 -53 6 -57 8 -48 26 8 13 7 19 0 19 -6 0 -9 8 -6 18 9 27 -32
42 -114 42 -42 0 -70 4 -70 10 0 6 7 27 15 47 17 41 19 53 6 53 -5 0 -21 -25
-35 -55 -24 -53 -26 -55 -65 -55 l-40 0 30 83 c60 163 63 167 108 167 l40 0
-14 -41 c-18 -50 -18 -49 -2 -49 16 0 39 62 31 84 -4 11 -19 16 -48 16 -33 0
-48 -6 -68 -27z m-432 -268 c-4 -12 4 -15 40 -15 28 0 43 -4 39 -10 -3 -5 -26
-10 -51 -10 -32 0 -44 -4 -44 -15 0 -9 -10 -15 -26 -15 -19 0 -25 4 -20 15 4
10 -1 15 -15 15 -11 0 -29 5 -40 10 -16 9 -24 6 -43 -15 -13 -14 -31 -25 -40
-25 -19 0 -19 1 -6 34 9 24 7 26 -15 26 -14 0 -25 5 -25 10 0 6 49 10 126 10
108 0 125 -2 120 -15z m194 5 c0 -5 -6 -10 -12 -11 -10 0 -10 -2 0 -6 18 -7
-33 -53 -59 -53 -12 0 -17 4 -13 11 3 6 0 15 -7 20 -12 8 -12 11 1 19 8 5 11
10 7 10 -5 0 -5 5 -2 10 3 6 24 10 46 10 21 0 39 -4 39 -10z"/>
<path d="M1595 1160 c-3 -6 1 -7 9 -4 18 7 21 14 7 14 -6 0 -13 -4 -16 -10z"/>
<path d="M385 1140 c11 -5 30 -9 43 -9 12 -1 22 -4 22 -8 -1 -5 -16 -46 -34
-92 -21 -54 -40 -87 -52 -92 -11 -4 24 -8 78 -8 92 -1 98 0 113 23 9 13 17 39
19 58 1 18 10 47 19 65 9 18 17 41 17 53 0 19 -5 20 -122 19 -78 0 -116 -4
-103 -9z m185 -15 c0 -3 -7 -21 -14 -40 -13 -29 -20 -35 -45 -35 -34 0 -36 3
-20 49 9 27 16 31 45 31 19 0 34 -2 34 -5z m-51 -94 c12 -8 12 -15 -1 -47 -13
-32 -21 -40 -47 -42 -36 -4 -39 7 -16 62 15 36 36 45 64 27z"/>
<path d="M511 1098 c-5 -13 -7 -25 -5 -27 8 -9 32 9 37 28 7 29 -21 28 -32 -1z"/>
<path d="M470 994 c-13 -33 -13 -34 5 -34 9 0 20 12 25 26 13 33 13 34 -5 34
-9 0 -20 -12 -25 -26z"/>
<path d="M691 1137 c-11 -13 -81 -194 -81 -209 0 -5 29 -8 65 -8 37 0 65 4 65
10 0 6 -18 10 -40 10 -22 0 -40 1 -40 3 0 1 16 44 35 96 19 51 35 98 35 102 0
14 -26 11 -39 -4z"/>
<path d="M822 1043 c-22 -60 -38 -111 -36 -114 6 -11 124 -10 124 1 0 5 -16
10 -35 10 -40 0 -41 4 -19 60 15 37 19 40 58 42 l41 1 -37 4 c-43 5 -44 7 -23
56 13 32 19 36 57 40 32 3 26 4 -23 5 l-67 2 -40 -107z"/>
<path d="M1088 1133 c-28 -32 -127 -197 -122 -203 6 -5 26 17 54 58 16 24 49
35 68 23 6 -3 12 -24 14 -46 l3 -40 90 -3 c145 -5 172 7 190 81 6 23 4 27 -14
27 -17 0 -27 -12 -42 -45 -17 -39 -24 -45 -49 -45 -18 0 -30 5 -30 13 0 7 15
51 33 98 31 79 35 84 62 84 31 0 35 -9 21 -52 -6 -19 -4 -23 13 -23 23 0 56
53 47 76 -7 18 -139 20 -153 2 -15 -20 -73 -166 -73 -183 0 -9 -9 -15 -25 -15
-28 0 -30 11 -19 132 5 50 11 68 23 71 9 3 -5 5 -30 6 -32 1 -50 -4 -61 -16z
m18 -89 c-6 -17 -46 -19 -46 -3 0 7 10 28 23 48 l22 36 3 -33 c2 -19 1 -40 -2
-48z"/>
<path d="M1245 1139 c-4 -6 -5 -12 -2 -15 2 -3 7 2 10 11 7 17 1 20 -8 4z"/>
<path d="M1496 1142 c-6 -9 -76 -202 -76 -208 0 -2 11 -4 24 -4 20 0 27 8 41
50 15 45 20 50 46 50 33 0 35 -7 14 -57 -8 -19 -15 -37 -15 -39 0 -2 33 -3 73
-2 47 1 58 3 30 5 -24 2 -43 8 -43 13 0 7 40 120 65 183 6 13 2 17 -19 17 -21
0 -28 -8 -43 -50 -15 -44 -21 -50 -45 -50 -32 0 -35 12 -13 64 15 36 15 36 -9
36 -14 0 -27 -4 -30 -8z"/>
<path d="M1189 1123 c-13 -16 -12 -17 4 -4 16 13 21 21 13 21 -2 0 -10 -8 -17
-17z"/>
<path d="M390 1116 c0 -2 9 -6 20 -9 11 -3 20 -1 20 4 0 5 -9 9 -20 9 -11 0
-20 -2 -20 -4z"/>
<path d="M1325 1110 c-3 -5 -14 -33 -24 -62 -11 -29 -22 -61 -26 -70 -5 -12
-2 -18 7 -18 14 0 43 57 66 128 9 26 8 32 -3 32 -8 0 -17 -4 -20 -10z"/>
<path d="M1685 1080 c4 -6 11 -8 16 -5 14 9 11 15 -7 15 -8 0 -12 -5 -9 -10z"/>
<path d="M1172 1055 c0 -16 2 -22 5 -12 2 9 2 23 0 30 -3 6 -5 -1 -5 -18z"/>
<path d="M1890 1016 c0 -2 8 -10 18 -17 15 -13 16 -12 3 4 -13 16 -21 21 -21
13z"/>
<path d="M766 965 c-9 -26 -7 -32 5 -12 6 10 9 21 6 23 -2 3 -7 -2 -11 -11z"/>
<path d="M1611 964 c0 -11 3 -14 6 -6 3 7 2 16 -1 19 -3 4 -6 -2 -5 -13z"/>
<path d="M36 904 c-4 -14 -5 -28 -3 -31 3 -2 8 8 11 23 4 14 5 28 3 31 -3 2
-8 -8 -11 -23z"/>
<path d="M1946 891 l-20 -26 21 18 c21 18 21 18 26 0 4 -15 5 -14 6 4 2 32
-12 34 -33 4z"/>
<path d="M40 851 c0 -6 4 -13 10 -16 6 -3 7 1 4 9 -7 18 -14 21 -14 7z"/>
<path d="M1900 800 c-23 -7 -23 -8 -3 -9 12 -1 25 4 28 9 3 6 5 10 3 9 -2 -1
-14 -5 -28 -9z"/>
<path d="M253 793 c9 -2 23 -2 30 0 6 3 -1 5 -18 5 -16 0 -22 -2 -12 -5z"/>
<path d="M168 783 c6 -2 18 -2 25 0 6 3 1 5 -13 5 -14 0 -19 -2 -12 -5z"/>
</g>
</svg>
