<svg xmlns="http://www.w3.org/2000/svg"  viewBox="0 0 48 48" width="48px" height="48px"><path d="M 11.966797 0.54882812 A 1.50015 1.50015 0 0 0 10.5625 1.7089844 C 10.131006 3.5680473 9.2244896 4.4378185 8.1210938 5.4589844 C 7.0176977 6.4801503 5.5305725 7.7577995 5.3652344 9.9335938 C 5.2576723 11.333166 5.7241339 12.415148 6.2050781 13.310547 C 0.56261292 19.165231 0.5234375 26.550781 0.5234375 26.550781 A 1.50015 1.50015 0 0 0 2.234375 28.033203 C 2.234375 28.033203 3.0483801 27.92103 3.984375 27.919922 C 4.3189274 27.919526 4.3669029 27.972512 4.671875 28.023438 C 3.4746626 30.669425 3.1384842 33.535069 3.0273438 35.460938 A 1.50015 1.50015 0 0 0 4.2207031 37.017578 C 6.56409 37.502049 8.5097473 37.048108 9.9902344 36.357422 C 10.408723 37.255266 11.148151 38.30895 12.375 38.513672 C 13.409565 40.662109 14.928124 42.550029 16.832031 44.003906 L 18.251953 45.089844 C 19.913592 46.358279 21.940957 47.048828 24.023438 47.048828 C 26.106727 47.048828 28.132017 46.358659 29.792969 45.089844 L 31.214844 44.003906 C 33.256183 42.444875 34.853539 40.387643 35.886719 38.044922 C 37.010059 37.982114 37.764242 37.224537 38.25 36.425781 C 38.626118 36.508235 39.029761 36.586899 39.470703 36.640625 C 40.912319 36.816278 42.761298 36.765204 44.642578 35.914062 A 1.50015 1.50015 0 0 0 45.142578 33.548828 C 44.91252 33.291166 44.671461 32.385224 44.4375 31.015625 C 44.279934 30.093239 43.976992 28.985033 43.519531 27.853516 C 45.41086 27.097212 46.84375 26.304687 46.84375 26.304688 A 1.50015 1.50015 0 0 0 47.345703 24.337891 C 47.345703 24.337891 44.341065 18.70814 42.945312 14.568359 C 42.280854 12.598435 41.105133 11.472569 39.861328 10.648438 C 40.219428 10.420179 40.447042 10.194286 40.830078 9.9785156 C 41.916117 9.3667322 42.999909 8.8364926 43.824219 8.3164062 A 1.50015 1.50015 0 0 0 43.890625 5.8222656 C 41.174741 3.9020792 38.240283 4.18116 35.685547 4.7167969 C 34.135271 5.0418343 32.646521 5.3388459 31.160156 5.5058594 C 32.153749 3.8097025 32.496094 2.3359375 32.496094 2.3359375 A 1.50015 1.50015 0 0 0 30.423828 0.67382812 C 28.724567 1.4157592 26.165285 1.4568398 23.492188 1.7265625 C 21.372267 1.940468 19.087366 2.4133223 17.226562 3.8320312 C 16.485347 3.0011283 15.665483 2.3016758 14.884766 1.8203125 C 13.649354 1.0586009 12.556641 0.64453125 12.556641 0.64453125 A 1.50015 1.50015 0 0 0 11.966797 0.54882812 z M 12.722656 4.0742188 C 12.98635 4.2088371 12.993507 4.1775711 13.310547 4.3730469 C 14.290635 4.9773353 15.302595 5.874 15.65625 6.6621094 A 1.50015 1.50015 0 0 0 18.197266 6.9824219 C 19.443725 5.4182976 21.34427 4.9582148 23.794922 4.7109375 C 25.206589 4.5684966 26.733225 4.4617574 28.269531 4.2441406 C 27.907904 4.8144045 27.655656 5.3805682 27.039062 5.9179688 A 1.50015 1.50015 0 0 0 27.791016 8.5292969 C 31.093128 9.0476551 33.94247 8.1472069 36.302734 7.6523438 C 37.498215 7.401694 38.513774 7.2446386 39.464844 7.3066406 C 39.421184 7.3310546 39.401234 7.3405564 39.357422 7.3652344 C 38.184961 8.025701 36.944966 8.7782248 35.964844 9.7558594 A 1.50015 1.50015 0 0 0 36.558594 12.242188 C 38.15209 12.762662 39.326434 13.223525 40.103516 15.527344 C 41.323758 19.146565 43.126102 22.692212 43.980469 24.332031 C 43.334903 24.698736 42.795338 25.103185 41.082031 25.609375 A 1.50015 1.50015 0 0 0 40.263672 27.886719 C 40.992182 28.967519 41.25568 30.20363 41.480469 31.519531 C 41.594831 32.189002 41.68047 32.897426 41.876953 33.595703 C 41.160675 33.710342 40.464855 33.738974 39.833984 33.662109 C 38.795728 33.535603 38.108753 33.272488 37.441406 33.107422 L 38.458984 29.492188 A 1.50015 1.50015 0 0 0 38.460938 29.484375 C 39.208866 26.756768 39.310095 23.061947 38.308594 19.90625 C 37.435282 17.15179 35.258011 14.05039 33.001953 12.283203 A 1.0001 1.0001 0 0 0 32.037109 11.541016 A 1.0001 1.0001 0 0 0 31.498047 11.697266 C 27.263143 14.320038 24.508314 14.233713 22.783203 13.650391 C 21.058092 13.067068 20.353516 11.990234 20.353516 11.990234 A 1.0001 1.0001 0 0 0 18.525391 12.496094 C 18.350725 15.891278 16.392748 17.812847 14.367188 19.015625 C 12.341625 20.218403 10.357422 20.5625 10.357422 20.5625 A 1.0001 1.0001 0 0 0 9.5292969 21.269531 L 9.3886719 21.240234 C 8.7949392 24.066846 8.9416794 27.133858 9.5859375 29.484375 A 1.50015 1.50015 0 0 0 9.5898438 29.492188 L 10.443359 32.529297 C 9.8142311 33.098933 8.4081273 34.099229 6.234375 34.105469 C 6.4702894 32.052549 6.9288922 29.634237 8.1054688 27.884766 A 1.50015 1.50015 0 0 0 7.8144531 25.888672 C 6.5480015 24.847046 5.1559739 24.91853 3.9804688 24.919922 C 3.8808448 24.92004 3.8933528 24.929721 3.796875 24.931641 C 3.9707762 23.023567 4.6166339 18.693229 9.0351562 14.654297 A 1.50015 1.50015 0 0 0 9.296875 12.753906 C 9.0015387 12.279994 8.337783 10.417646 8.3574219 10.162109 C 8.4300837 9.2059039 9.0005992 8.7334435 10.158203 7.6621094 C 11.012961 6.8710519 11.973705 5.6368234 12.722656 4.0742188 z M 20.167969 14.392578 C 20.709445 14.804356 21.260376 15.246617 22.142578 15.544922 C 23.733056 16.08272 25.891861 16.186603 28.566406 15.294922 L 28.023438 16.199219 C 28.023438 16.199219 30.023438 16.199219 29.023438 18.199219 C 27.613437 21.029219 27.023438 19.199219 27.023438 19.199219 L 25.023438 22.199219 C 27.023438 21.199219 27.023438 22.199219 26.023438 24.199219 C 28.023438 23.199219 29.023438 24.199219 29.023438 24.199219 L 31.023438 23.199219 C 31.023438 23.199219 27.803438 22.809219 31.023438 21.199219 C 35.023438 19.199219 33.023438 22.199219 33.023438 22.199219 L 35.546875 21.189453 C 36.191258 23.557199 36.106251 26.727827 35.568359 28.689453 L 35.207031 29.974609 C 35.043647 29.874821 34.725446 29.680263 34.328125 29.4375 C 33.912125 29.1835 33.433312 29.048828 32.945312 29.048828 L 30.662109 29.048828 C 30.028109 29.048828 29.409813 29.236891 28.882812 29.587891 C 28.411812 29.901891 27.824 30.292797 27.375 30.591797 C 27.197 30.710797 27.073156 30.897375 27.035156 31.109375 C 26.997156 31.320375 27.047828 31.538891 27.173828 31.712891 L 27.246094 31.8125 C 27.494094 32.1535 27.969406 32.234141 28.316406 31.994141 C 28.634111 31.775482 28.781885 31.674388 29.060547 31.482422 L 29.023438 31.798828 C 29.023438 33.041828 29.918437 34.048828 31.023438 34.048828 C 32.127437 34.048828 33.023438 33.041828 33.023438 31.798828 L 33.023438 31.048828 L 33.421875 31.048828 L 34.636719 32.005859 L 33.732422 35.216797 C 33.006346 37.778247 31.482096 40.024807 29.394531 41.619141 L 27.972656 42.705078 C 26.829608 43.578263 25.446147 44.048828 24.023438 44.048828 C 22.602801 44.048828 21.218165 43.579547 20.074219 42.707031 L 20.072266 42.705078 L 18.652344 41.621094 A 1.50015 1.50015 0 0 0 18.652344 41.619141 C 16.566178 40.026085 15.041546 37.778693 14.314453 35.216797 L 14.3125 35.212891 L 13.412109 32.005859 L 14.626953 31.048828 L 15.023438 31.048828 L 15.023438 31.798828 C 15.023438 33.041828 15.918437 34.048828 17.023438 34.048828 C 18.127437 34.048828 19.023438 33.041828 19.023438 31.798828 L 18.986328 31.482422 C 19.26499 31.674388 19.412764 31.775482 19.730469 31.994141 C 20.078469 32.234141 20.553781 32.1535 20.800781 31.8125 L 20.873047 31.712891 C 20.999047 31.538891 21.049719 31.320375 21.011719 31.109375 C 20.973719 30.897375 20.850875 30.710797 20.671875 30.591797 C 20.223875 30.292797 19.636062 29.901891 19.164062 29.587891 C 18.637062 29.236891 18.018766 29.048828 17.384766 29.048828 L 15.101562 29.048828 C 14.613563 29.048828 14.13575 29.1835 13.71875 29.4375 C 13.322071 29.67987 13.005893 29.874386 12.841797 29.974609 L 12.480469 28.691406 C 12.010909 26.978259 11.864987 24.333495 12.279297 22.115234 C 13.142459 21.83951 14.251785 21.411411 15.388672 20.736328 C 17.388493 19.548835 19.418995 17.470116 20.167969 14.392578 z M 31.972656 15.464844 C 32.829206 16.396411 33.772525 17.662113 34.484375 18.84375 C 31.998435 19.422772 31.196527 18.875739 32.023438 18.048828 C 30.559612 18.048828 31.240714 16.525957 31.972656 15.464844 z M 14.173828 23.193359 A 1.0001 1.0001 0 0 0 13.6875 25.076172 L 20.542969 28.84375 A 1.0001 1.0001 0 1 0 21.505859 27.091797 L 14.652344 23.324219 A 1.0001 1.0001 0 0 0 14.173828 23.193359 z M 33.990234 23.193359 A 1.0001 1.0001 0 0 0 33.542969 23.324219 L 26.542969 27.171875 A 1.0001 1.0001 0 1 0 27.505859 28.923828 L 34.505859 25.076172 A 1.0001 1.0001 0 0 0 33.990234 23.193359 z M 23.585938 35.050781 C 23.081582 35.002301 22.023438 35.894734 22.023438 36.552734 C 22.023438 37.304734 23.429672 38.336656 23.763672 37.972656 C 24.097672 37.608656 24.121672 35.522813 23.763672 35.132812 C 23.718922 35.084063 23.657988 35.057707 23.585938 35.050781 z M 22.021484 40.048828 C 21.756484 40.048828 21.503406 40.152844 21.316406 40.339844 C 21.129406 40.527844 21.023437 40.782875 21.023438 41.046875 C 21.023438 41.312875 21.128406 41.567859 21.316406 41.755859 C 21.503406 41.943859 21.758437 42.048828 22.023438 42.048828 L 26.089844 42.048828 C 26.336844 42.048828 26.575 41.949438 26.75 41.773438 C 26.925 41.598438 27.023438 41.361281 27.023438 41.113281 L 27.023438 41.039062 C 27.023438 40.491062 26.57925 40.048828 26.03125 40.048828 L 22.021484 40.048828 z"/></svg>